<?xml version="1.0" encoding="utf-8"?>
<!-- Generator: Adobe Illustrator 19.2.0, SVG Export Plug-In . SVG Version: 6.00 Build 0)  -->
<svg version="1.1" baseProfile="basic" id="Layer_1"
	 xmlns="http://www.w3.org/2000/svg" xmlns:xlink="http://www.w3.org/1999/xlink" x="0px" y="0px" viewBox="0 0 82 68"
	 xml:space="preserve">
<path fill-rule="evenodd" clip-rule="evenodd" fill="#4787A8" d="M72.3,48.4c-0.1,0-0.2,0.1-0.2,0.1s0.5-4,1.1-8.9
	c0.5-4.3-1.6-9.4-6.1-12.9C57.4,19.2,46.8,28,46.8,28s-5.9-15.3-20.3-11.8c-4.2,1-8.5,4.3-10.3,9.6c-4.3,12.9-9.5,33.4-9.5,33.4
	s-0.1,0.1-0.1,0.1C-2,44.2-3.4,13,10,3.4c16.7-11.9,71.5,10,72,30.1C82.1,38.3,78.3,43.5,72.3,48.4z M33.7,25.7
	c5.9,1.8,5.7,6.7,5.5,8.6c-0.1,0.9-7.5,32.5-7.5,32.5s-0.1,0-0.2,0c-6.6,1.3-12.4,1.6-16.4,0.3c0,0-0.1,0-0.1,0s9.9-36,10.5-37.5
	C26.3,27.8,28.9,24.4,33.7,25.7z M58.2,32.7c2.6,0.8,4.7,3.6,4.7,6.6C62.8,41.9,60.3,56,60.3,56s0,0-0.1,0.1
	c-5.6,3-11.8,5.7-17.9,7.7c-0.1,0-0.2,0-0.2,0s6.1-24.8,8.1-28.2C51.9,32.6,54.7,31.6,58.2,32.7z"/>
</svg>
