<?xml version="1.0" encoding="utf-8"?>
<!-- Generator: Adobe Illustrator 19.2.0, SVG Export Plug-In . SVG Version: 6.00 Build 0)  -->
<svg version="1.1" baseProfile="basic" id="Layer_1"
	 xmlns="http://www.w3.org/2000/svg" xmlns:xlink="http://www.w3.org/1999/xlink" x="0px" y="0px" viewBox="0 0 520.6 124.5"
	 xml:space="preserve">
<path fill-rule="evenodd" clip-rule="evenodd" fill="#FFFFFF" d="M18.1,6.2c30.3-21.7,130.2,18.2,131.2,54.9
	c0.2,8.8-6.8,18.2-17.7,27.1c-0.1,0.1-0.3,0.1-0.3,0.1s0.9-7.3,1.9-16.2c1-7.9-2.9-17.2-11.2-23.5C104.5,35.1,85.2,51,85.2,51
	s-10.7-27.8-37-21.4c-7.6,1.9-15.5,7.9-18.7,17.5c-7.8,23.5-17.3,60.8-17.3,60.8s-0.2,0.1-0.2,0.1C-3.7,80.5-6.2,23.6,18.1,6.2z"/>
<path fill-rule="evenodd" clip-rule="evenodd" fill="#02AEEF" d="M58.2,122.4c0,0-0.3,0.1-0.4,0.1c-12,2.4-22.5,2.9-29.8,0.6
	c-0.1,0-0.2-0.1-0.2-0.1s18-65.5,19.2-68.2c1.5-3.5,6.3-9.7,15-7.2c10.7,3.3,10.3,12.1,10,15.7C71.8,64.8,58.2,122.4,58.2,122.4z"/>
<path fill-rule="evenodd" clip-rule="evenodd" fill="#94CF1E" d="M115.1,72.2c-0.1,5-4.8,30.7-4.8,30.7s0,0-0.2,0.1
	c-10.3,5.6-21.6,10.4-32.7,14.1c-0.3,0.1-0.3,0.1-0.3,0.1s11.2-45.3,14.7-51.6c3.1-5.5,8.2-7.4,14.7-5.4
	C111.2,61.6,115.2,66.7,115.1,72.2z"/>
<g>
	<path fill="#FFFFFF" d="M209.1,50.8c-4,0-7.8,2.7-9.3,5.2c-0.8-2.9-3.2-5.2-7.4-5.2c-4.1,0-7.8,2.9-9,4.7v-4H179v27.8h4.3V59
		c1.5-2.2,4.5-4.3,7.3-4.3c3.7,0,5.1,2.2,5.1,5.8v18.9h4.3V58.9c1.4-2.2,4.5-4.3,7.4-4.3c3.6,0,5.1,2.2,5.1,5.8v18.9h4.3V59.2
		C216.8,53.6,214.1,50.8,209.1,50.8z M236.4,50.8c-4.5,0-8.1,1.5-11.1,4.6l2,3c2.5-2.7,5.2-3.9,8.5-3.9c4,0,7,2.1,7,5.8v5
		c-2.2-2.5-5.4-3.7-9.2-3.7c-4.7,0-9.7,2.9-9.7,9.2c0,6.1,5,9.2,9.7,9.2c3.7,0,7-1.3,9.2-3.9v3.2h4.3V60.2
		C247.1,53.4,242.3,50.8,236.4,50.8z M242.8,73.5c-1.7,2.3-4.6,3.5-7.6,3.5c-4.1,0-6.9-2.5-6.9-6.1c0-3.5,2.8-6.1,6.9-6.1
		c3,0,5.9,1.2,7.6,3.4V73.5z M280.2,51.5h-5.5l-14.6,14.8V40.9h-4.3v38.5h4.3v-8l4.7-4.6l9.9,12.5h5.5l-12.4-15.2L280.2,51.5z
		 M297.4,50.8c-7.9,0-13.7,6.5-13.7,14.6c0,8.7,5.9,14.6,14.2,14.6c4.5,0,8.2-1.6,11-4.3l-2.1-2.8c-2.2,2.3-5.4,3.6-8.6,3.6
		c-6,0-9.6-4.4-9.9-9.6h22.4v-1.1C310.8,57.4,305.8,50.8,297.4,50.8z M288.3,63.6c0.2-4.2,3.2-9.2,9.1-9.2c6.3,0,9.1,5.1,9.1,9.2
		H288.3z M320.3,58.7c0-2.5,2.4-4.4,6.2-4.4c3.6,0,6.6,1.5,8.3,3.5l2-3c-2.2-2.2-5.5-4-10.3-4c-6.6,0-10.3,3.6-10.3,8
		c0,10.3,17.2,6.2,17.2,12.9c0,2.8-2.4,4.8-6.6,4.8c-3.8,0-7.3-1.8-9.1-4l-2.2,3.1c2.8,2.9,6.6,4.4,11.2,4.4
		c7.1,0,10.9-3.7,10.9-8.4C337.5,60.8,320.3,64.7,320.3,58.7z"/>
</g>
<g>
	<path fill="#02AEEF" d="M358.5,51.8c-3.5,0-6.7,1.6-8.9,4.6V41.9h-6v38.5h6v-3.8c2.1,2.8,5.3,4.5,8.9,4.5c7.1,0,12.4-5.4,12.4-14.6
		C370.9,57.4,365.7,51.8,358.5,51.8z M356.8,75.7c-2.9,0-5.8-1.6-7.2-3.7V60.9c1.4-2.1,4.3-3.7,7.2-3.7c4.8,0,7.8,3.9,7.8,9.2
		C364.6,71.8,361.6,75.7,356.8,75.7z M383,56.5v-4h-6v27.8h6v-19c1.2-2,4.6-3.7,7.2-3.7c0.7,0,1.3,0.1,1.8,0.2v-6
		C388.5,51.8,385.2,53.9,383,56.5z M396.9,80.3h6V52.5h-6V80.3z M400,41.6c-2.1,0-3.7,1.7-3.7,3.7c0,2.1,1.7,3.7,3.7,3.7
		c2.1,0,3.7-1.7,3.7-3.7C403.7,43.3,402.1,41.6,400,41.6z M430.4,56.4c-2.2-3-5.4-4.6-8.9-4.6c-7.1,0-12.3,5.6-12.3,14.6
		c0,9.2,5.2,14.6,12.3,14.6c3.6,0,6.8-1.7,8.9-4.5v3.8h6V41.9h-6V56.4z M430.4,71.9c-1.3,2.1-4.3,3.7-7.1,3.7
		c-4.8,0-7.9-3.9-7.9-9.3c0-5.4,3-9.2,7.9-9.2c2.8,0,5.8,1.7,7.1,3.7V71.9z M463.8,56.4c-2.2-3-5.4-4.6-8.9-4.6
		c-7.2,0-12.3,5.2-12.3,14.3c0,9.2,5.2,14.3,12.3,14.3c3.6,0,6.8-1.8,8.9-4.7v3.2c0,5.9-4.3,7.8-8.2,7.8c-3.7,0-6.6-1-8.9-3.6
		l-2.8,4.4c3.5,3.1,7,4.2,11.7,4.2c6.8,0,14.3-2.7,14.3-12.7V52.5h-6V56.4z M463.8,71.3c-1.4,2-4.3,3.7-7.1,3.7
		c-4.8,0-7.9-3.5-7.9-8.9c0-5.4,3-8.9,7.9-8.9c2.8,0,5.8,1.7,7.1,3.7V71.3z M503.7,66.9c0-8.8-5.3-15.1-13.6-15.1
		c-8.2,0-14.1,6.5-14.1,14.6c0,8.8,6.2,14.6,14.5,14.6c4.4,0,8.5-1.4,11.3-4.1l-2.8-4c-2,2-5.2,3.1-7.9,3.1c-5.2,0-8.3-3.5-8.8-7.7
		h21.4V66.9z M482.2,64.1c0.2-3.3,2.6-7.3,7.8-7.3c5.5,0,7.7,4,7.9,7.3H482.2z"/>
</g>
<g>
	<path fill="#FFFFFF" d="M503.5,38.2h2.6v7.5h1v-7.5h2.7v-0.9h-6.3V38.2z M519.1,37.3l-2.6,6.5l-2.6-6.5h-1.5v8.4h1v-7.1l2.8,7.1
		h0.4l2.8-7.1v7.1h1v-8.4H519.1z"/>
</g>
</svg>
